<mxfile host="Electron" modified="2024-06-20T21:34:49.827Z" agent="Mozilla/5.0 (Macintosh; Intel Mac OS X 10_15_7) AppleWebKit/537.36 (KHTML, like Gecko) draw.io/24.2.5 Chrome/120.0.6099.109 Electron/28.1.0 Safari/537.36" etag="JpR5fml9r80utI4ht6ex" version="24.2.5" type="device">
  <diagram name="Page-1" id="C1jyCnX3W6Ar7uEVNill">
    <mxGraphModel dx="2187" dy="1402" grid="1" gridSize="10" guides="1" tooltips="1" connect="1" arrows="1" fold="1" page="1" pageScale="1" pageWidth="850" pageHeight="1100" math="0" shadow="0">
      <root>
        <mxCell id="0" />
        <mxCell id="1" parent="0" />
        <mxCell id="H-I3dIYny0l2x0wNeQ6u-1" value="Programa" style="text;html=1;align=center;verticalAlign=middle;whiteSpace=wrap;rounded=0;fontSize=16;fontStyle=1" vertex="1" parent="1">
          <mxGeometry x="170" y="100" width="60" height="30" as="geometry" />
        </mxCell>
        <mxCell id="H-I3dIYny0l2x0wNeQ6u-5" style="edgeStyle=orthogonalEdgeStyle;rounded=0;orthogonalLoop=1;jettySize=auto;html=1;exitX=1;exitY=0.5;exitDx=0;exitDy=0;" edge="1" parent="1" source="H-I3dIYny0l2x0wNeQ6u-2" target="H-I3dIYny0l2x0wNeQ6u-3">
          <mxGeometry relative="1" as="geometry" />
        </mxCell>
        <mxCell id="H-I3dIYny0l2x0wNeQ6u-2" value="Bloco" style="rounded=0;whiteSpace=wrap;html=1;fontSize=16;" vertex="1" parent="1">
          <mxGeometry x="260" y="150" width="120" height="60" as="geometry" />
        </mxCell>
        <mxCell id="H-I3dIYny0l2x0wNeQ6u-6" style="edgeStyle=orthogonalEdgeStyle;rounded=0;orthogonalLoop=1;jettySize=auto;html=1;exitX=1;exitY=0.5;exitDx=0;exitDy=0;" edge="1" parent="1" source="H-I3dIYny0l2x0wNeQ6u-3">
          <mxGeometry relative="1" as="geometry">
            <mxPoint x="670" y="180" as="targetPoint" />
          </mxGeometry>
        </mxCell>
        <mxCell id="H-I3dIYny0l2x0wNeQ6u-3" value="." style="ellipse;whiteSpace=wrap;html=1;fontSize=16;" vertex="1" parent="1">
          <mxGeometry x="490" y="140" width="120" height="80" as="geometry" />
        </mxCell>
        <mxCell id="H-I3dIYny0l2x0wNeQ6u-4" value="" style="endArrow=classic;html=1;rounded=0;entryX=0;entryY=0.5;entryDx=0;entryDy=0;" edge="1" parent="1" target="H-I3dIYny0l2x0wNeQ6u-2">
          <mxGeometry width="50" height="50" relative="1" as="geometry">
            <mxPoint x="190" y="180" as="sourcePoint" />
            <mxPoint x="200" y="140" as="targetPoint" />
          </mxGeometry>
        </mxCell>
        <mxCell id="H-I3dIYny0l2x0wNeQ6u-7" value="Bloco" style="text;html=1;align=center;verticalAlign=middle;whiteSpace=wrap;rounded=0;fontSize=16;fontStyle=1" vertex="1" parent="1">
          <mxGeometry x="170" y="260" width="60" height="30" as="geometry" />
        </mxCell>
        <mxCell id="H-I3dIYny0l2x0wNeQ6u-8" style="edgeStyle=orthogonalEdgeStyle;rounded=0;orthogonalLoop=1;jettySize=auto;html=1;exitX=1;exitY=0.5;exitDx=0;exitDy=0;entryX=0;entryY=0.5;entryDx=0;entryDy=0;" edge="1" parent="1" source="H-I3dIYny0l2x0wNeQ6u-9" target="H-I3dIYny0l2x0wNeQ6u-13">
          <mxGeometry relative="1" as="geometry">
            <mxPoint x="490" y="340" as="targetPoint" />
          </mxGeometry>
        </mxCell>
        <mxCell id="H-I3dIYny0l2x0wNeQ6u-9" value="Declaração" style="rounded=0;whiteSpace=wrap;html=1;fontSize=16;" vertex="1" parent="1">
          <mxGeometry x="260" y="310" width="120" height="60" as="geometry" />
        </mxCell>
        <mxCell id="H-I3dIYny0l2x0wNeQ6u-10" style="edgeStyle=orthogonalEdgeStyle;rounded=0;orthogonalLoop=1;jettySize=auto;html=1;exitX=1;exitY=0.5;exitDx=0;exitDy=0;" edge="1" parent="1" source="H-I3dIYny0l2x0wNeQ6u-13">
          <mxGeometry relative="1" as="geometry">
            <mxPoint x="670" y="340" as="targetPoint" />
            <mxPoint x="620" y="339.5" as="sourcePoint" />
          </mxGeometry>
        </mxCell>
        <mxCell id="H-I3dIYny0l2x0wNeQ6u-12" value="" style="endArrow=classic;html=1;rounded=0;entryX=0;entryY=0.5;entryDx=0;entryDy=0;" edge="1" parent="1" target="H-I3dIYny0l2x0wNeQ6u-9">
          <mxGeometry width="50" height="50" relative="1" as="geometry">
            <mxPoint x="190" y="340" as="sourcePoint" />
            <mxPoint x="200" y="300" as="targetPoint" />
          </mxGeometry>
        </mxCell>
        <mxCell id="H-I3dIYny0l2x0wNeQ6u-13" value="Comando" style="rounded=0;whiteSpace=wrap;html=1;fontSize=16;" vertex="1" parent="1">
          <mxGeometry x="490" y="310" width="120" height="60" as="geometry" />
        </mxCell>
        <mxCell id="H-I3dIYny0l2x0wNeQ6u-14" value="Declaração" style="text;html=1;align=center;verticalAlign=middle;whiteSpace=wrap;rounded=0;fontSize=16;fontStyle=1" vertex="1" parent="1">
          <mxGeometry x="170" y="390" width="60" height="30" as="geometry" />
        </mxCell>
        <mxCell id="H-I3dIYny0l2x0wNeQ6u-15" style="edgeStyle=orthogonalEdgeStyle;rounded=0;orthogonalLoop=1;jettySize=auto;html=1;exitX=1;exitY=0.5;exitDx=0;exitDy=0;entryX=0;entryY=0.5;entryDx=0;entryDy=0;" edge="1" parent="1" source="H-I3dIYny0l2x0wNeQ6u-16" target="H-I3dIYny0l2x0wNeQ6u-19">
          <mxGeometry relative="1" as="geometry">
            <mxPoint x="490" y="470" as="targetPoint" />
          </mxGeometry>
        </mxCell>
        <mxCell id="H-I3dIYny0l2x0wNeQ6u-16" value="Constante" style="rounded=0;whiteSpace=wrap;html=1;fontSize=16;" vertex="1" parent="1">
          <mxGeometry x="260" y="440" width="120" height="60" as="geometry" />
        </mxCell>
        <mxCell id="H-I3dIYny0l2x0wNeQ6u-17" style="edgeStyle=orthogonalEdgeStyle;rounded=0;orthogonalLoop=1;jettySize=auto;html=1;exitX=1;exitY=0.5;exitDx=0;exitDy=0;" edge="1" parent="1" source="H-I3dIYny0l2x0wNeQ6u-19" target="H-I3dIYny0l2x0wNeQ6u-20">
          <mxGeometry relative="1" as="geometry">
            <mxPoint x="670" y="470" as="targetPoint" />
            <mxPoint x="620" y="469.5" as="sourcePoint" />
          </mxGeometry>
        </mxCell>
        <mxCell id="H-I3dIYny0l2x0wNeQ6u-18" value="" style="endArrow=classic;html=1;rounded=0;entryX=0;entryY=0.5;entryDx=0;entryDy=0;" edge="1" parent="1" target="H-I3dIYny0l2x0wNeQ6u-16">
          <mxGeometry width="50" height="50" relative="1" as="geometry">
            <mxPoint x="190" y="470" as="sourcePoint" />
            <mxPoint x="200" y="430" as="targetPoint" />
          </mxGeometry>
        </mxCell>
        <mxCell id="H-I3dIYny0l2x0wNeQ6u-19" value="Variável" style="rounded=0;whiteSpace=wrap;html=1;fontSize=16;" vertex="1" parent="1">
          <mxGeometry x="490" y="440" width="120" height="60" as="geometry" />
        </mxCell>
        <mxCell id="H-I3dIYny0l2x0wNeQ6u-21" style="edgeStyle=orthogonalEdgeStyle;rounded=0;orthogonalLoop=1;jettySize=auto;html=1;exitX=1;exitY=0.5;exitDx=0;exitDy=0;" edge="1" parent="1" source="H-I3dIYny0l2x0wNeQ6u-20">
          <mxGeometry relative="1" as="geometry">
            <mxPoint x="850" y="470" as="targetPoint" />
          </mxGeometry>
        </mxCell>
        <mxCell id="H-I3dIYny0l2x0wNeQ6u-20" value="Procedimento" style="rounded=0;whiteSpace=wrap;html=1;fontSize=16;" vertex="1" parent="1">
          <mxGeometry x="680" y="440" width="120" height="60" as="geometry" />
        </mxCell>
        <mxCell id="H-I3dIYny0l2x0wNeQ6u-22" value="Constante" style="text;html=1;align=center;verticalAlign=middle;whiteSpace=wrap;rounded=0;fontSize=16;fontStyle=1" vertex="1" parent="1">
          <mxGeometry x="170" y="530" width="60" height="30" as="geometry" />
        </mxCell>
        <mxCell id="H-I3dIYny0l2x0wNeQ6u-38" style="edgeStyle=orthogonalEdgeStyle;rounded=0;orthogonalLoop=1;jettySize=auto;html=1;entryX=0;entryY=0.5;entryDx=0;entryDy=0;" edge="1" parent="1" source="H-I3dIYny0l2x0wNeQ6u-30" target="H-I3dIYny0l2x0wNeQ6u-31">
          <mxGeometry relative="1" as="geometry" />
        </mxCell>
        <mxCell id="H-I3dIYny0l2x0wNeQ6u-44" style="edgeStyle=orthogonalEdgeStyle;rounded=0;orthogonalLoop=1;jettySize=auto;html=1;startArrow=classic;startFill=1;endArrow=none;endFill=0;" edge="1" parent="1" source="H-I3dIYny0l2x0wNeQ6u-30">
          <mxGeometry relative="1" as="geometry">
            <mxPoint x="240" y="610" as="targetPoint" />
          </mxGeometry>
        </mxCell>
        <mxCell id="H-I3dIYny0l2x0wNeQ6u-30" value="CONST" style="ellipse;whiteSpace=wrap;html=1;fontSize=16;" vertex="1" parent="1">
          <mxGeometry x="280" y="660" width="120" height="80" as="geometry" />
        </mxCell>
        <mxCell id="H-I3dIYny0l2x0wNeQ6u-39" style="edgeStyle=orthogonalEdgeStyle;rounded=0;orthogonalLoop=1;jettySize=auto;html=1;" edge="1" parent="1" source="H-I3dIYny0l2x0wNeQ6u-31" target="H-I3dIYny0l2x0wNeQ6u-32">
          <mxGeometry relative="1" as="geometry" />
        </mxCell>
        <mxCell id="H-I3dIYny0l2x0wNeQ6u-31" value="ident" style="ellipse;whiteSpace=wrap;html=1;fontSize=16;" vertex="1" parent="1">
          <mxGeometry x="470" y="660" width="120" height="80" as="geometry" />
        </mxCell>
        <mxCell id="H-I3dIYny0l2x0wNeQ6u-40" style="edgeStyle=orthogonalEdgeStyle;rounded=0;orthogonalLoop=1;jettySize=auto;html=1;" edge="1" parent="1" source="H-I3dIYny0l2x0wNeQ6u-32" target="H-I3dIYny0l2x0wNeQ6u-33">
          <mxGeometry relative="1" as="geometry" />
        </mxCell>
        <mxCell id="H-I3dIYny0l2x0wNeQ6u-32" value="=" style="ellipse;whiteSpace=wrap;html=1;fontSize=16;" vertex="1" parent="1">
          <mxGeometry x="650" y="660" width="120" height="80" as="geometry" />
        </mxCell>
        <mxCell id="H-I3dIYny0l2x0wNeQ6u-41" style="edgeStyle=orthogonalEdgeStyle;rounded=0;orthogonalLoop=1;jettySize=auto;html=1;" edge="1" parent="1" source="H-I3dIYny0l2x0wNeQ6u-33" target="H-I3dIYny0l2x0wNeQ6u-34">
          <mxGeometry relative="1" as="geometry" />
        </mxCell>
        <mxCell id="H-I3dIYny0l2x0wNeQ6u-33" value="numero" style="ellipse;whiteSpace=wrap;html=1;fontSize=16;" vertex="1" parent="1">
          <mxGeometry x="820" y="660" width="120" height="80" as="geometry" />
        </mxCell>
        <mxCell id="H-I3dIYny0l2x0wNeQ6u-42" style="edgeStyle=orthogonalEdgeStyle;rounded=0;orthogonalLoop=1;jettySize=auto;html=1;" edge="1" parent="1" source="H-I3dIYny0l2x0wNeQ6u-34" target="H-I3dIYny0l2x0wNeQ6u-35">
          <mxGeometry relative="1" as="geometry" />
        </mxCell>
        <mxCell id="H-I3dIYny0l2x0wNeQ6u-34" value="Mais Const" style="rounded=0;whiteSpace=wrap;html=1;fontSize=16;" vertex="1" parent="1">
          <mxGeometry x="1020" y="670" width="120" height="60" as="geometry" />
        </mxCell>
        <mxCell id="H-I3dIYny0l2x0wNeQ6u-45" style="edgeStyle=orthogonalEdgeStyle;rounded=0;orthogonalLoop=1;jettySize=auto;html=1;exitX=1;exitY=0.5;exitDx=0;exitDy=0;" edge="1" parent="1" source="H-I3dIYny0l2x0wNeQ6u-35">
          <mxGeometry relative="1" as="geometry">
            <mxPoint x="1400" y="610" as="targetPoint" />
          </mxGeometry>
        </mxCell>
        <mxCell id="H-I3dIYny0l2x0wNeQ6u-35" value=";" style="ellipse;whiteSpace=wrap;html=1;fontSize=16;" vertex="1" parent="1">
          <mxGeometry x="1215" y="660" width="120" height="80" as="geometry" />
        </mxCell>
        <mxCell id="H-I3dIYny0l2x0wNeQ6u-43" value="" style="endArrow=classic;html=1;rounded=0;endFill=1;" edge="1" parent="1">
          <mxGeometry width="50" height="50" relative="1" as="geometry">
            <mxPoint x="160" y="610" as="sourcePoint" />
            <mxPoint x="1510" y="610" as="targetPoint" />
          </mxGeometry>
        </mxCell>
        <mxCell id="H-I3dIYny0l2x0wNeQ6u-46" value="Variável" style="text;html=1;align=center;verticalAlign=middle;whiteSpace=wrap;rounded=0;fontSize=16;fontStyle=1" vertex="1" parent="1">
          <mxGeometry x="170" y="780" width="60" height="30" as="geometry" />
        </mxCell>
        <mxCell id="H-I3dIYny0l2x0wNeQ6u-47" style="edgeStyle=orthogonalEdgeStyle;rounded=0;orthogonalLoop=1;jettySize=auto;html=1;entryX=0;entryY=0.5;entryDx=0;entryDy=0;" edge="1" parent="1" source="H-I3dIYny0l2x0wNeQ6u-49" target="H-I3dIYny0l2x0wNeQ6u-51">
          <mxGeometry relative="1" as="geometry" />
        </mxCell>
        <mxCell id="H-I3dIYny0l2x0wNeQ6u-48" style="edgeStyle=orthogonalEdgeStyle;rounded=0;orthogonalLoop=1;jettySize=auto;html=1;startArrow=classic;startFill=1;endArrow=none;endFill=0;" edge="1" parent="1" source="H-I3dIYny0l2x0wNeQ6u-49">
          <mxGeometry relative="1" as="geometry">
            <mxPoint x="240" y="860" as="targetPoint" />
          </mxGeometry>
        </mxCell>
        <mxCell id="H-I3dIYny0l2x0wNeQ6u-49" value="VAR" style="ellipse;whiteSpace=wrap;html=1;fontSize=16;" vertex="1" parent="1">
          <mxGeometry x="280" y="910" width="120" height="80" as="geometry" />
        </mxCell>
        <mxCell id="H-I3dIYny0l2x0wNeQ6u-50" style="edgeStyle=orthogonalEdgeStyle;rounded=0;orthogonalLoop=1;jettySize=auto;html=1;entryX=0;entryY=0.5;entryDx=0;entryDy=0;" edge="1" parent="1" source="H-I3dIYny0l2x0wNeQ6u-51" target="H-I3dIYny0l2x0wNeQ6u-57">
          <mxGeometry relative="1" as="geometry">
            <mxPoint x="650" y="950" as="targetPoint" />
          </mxGeometry>
        </mxCell>
        <mxCell id="H-I3dIYny0l2x0wNeQ6u-51" value="ident" style="ellipse;whiteSpace=wrap;html=1;fontSize=16;" vertex="1" parent="1">
          <mxGeometry x="470" y="910" width="120" height="80" as="geometry" />
        </mxCell>
        <mxCell id="H-I3dIYny0l2x0wNeQ6u-56" style="edgeStyle=orthogonalEdgeStyle;rounded=0;orthogonalLoop=1;jettySize=auto;html=1;" edge="1" parent="1" source="H-I3dIYny0l2x0wNeQ6u-57" target="H-I3dIYny0l2x0wNeQ6u-59">
          <mxGeometry relative="1" as="geometry" />
        </mxCell>
        <mxCell id="H-I3dIYny0l2x0wNeQ6u-57" value="Mais Var" style="rounded=0;whiteSpace=wrap;html=1;fontSize=16;" vertex="1" parent="1">
          <mxGeometry x="670" y="920" width="120" height="60" as="geometry" />
        </mxCell>
        <mxCell id="H-I3dIYny0l2x0wNeQ6u-61" style="edgeStyle=orthogonalEdgeStyle;rounded=0;orthogonalLoop=1;jettySize=auto;html=1;exitX=1;exitY=0.5;exitDx=0;exitDy=0;" edge="1" parent="1" source="H-I3dIYny0l2x0wNeQ6u-59">
          <mxGeometry relative="1" as="geometry">
            <mxPoint x="1070" y="860" as="targetPoint" />
          </mxGeometry>
        </mxCell>
        <mxCell id="H-I3dIYny0l2x0wNeQ6u-59" value=";" style="ellipse;whiteSpace=wrap;html=1;fontSize=16;" vertex="1" parent="1">
          <mxGeometry x="870" y="910" width="120" height="80" as="geometry" />
        </mxCell>
        <mxCell id="H-I3dIYny0l2x0wNeQ6u-60" value="" style="endArrow=classic;html=1;rounded=0;endFill=1;" edge="1" parent="1">
          <mxGeometry width="50" height="50" relative="1" as="geometry">
            <mxPoint x="160" y="860" as="sourcePoint" />
            <mxPoint x="1170" y="860" as="targetPoint" />
          </mxGeometry>
        </mxCell>
        <mxCell id="H-I3dIYny0l2x0wNeQ6u-62" value="Mais Var" style="text;html=1;align=center;verticalAlign=middle;whiteSpace=wrap;rounded=0;fontSize=16;fontStyle=1" vertex="1" parent="1">
          <mxGeometry x="170" y="1030" width="90" height="30" as="geometry" />
        </mxCell>
        <mxCell id="H-I3dIYny0l2x0wNeQ6u-63" style="edgeStyle=orthogonalEdgeStyle;rounded=0;orthogonalLoop=1;jettySize=auto;html=1;entryX=0;entryY=0.5;entryDx=0;entryDy=0;" edge="1" parent="1" source="H-I3dIYny0l2x0wNeQ6u-65" target="H-I3dIYny0l2x0wNeQ6u-67">
          <mxGeometry relative="1" as="geometry" />
        </mxCell>
        <mxCell id="H-I3dIYny0l2x0wNeQ6u-64" style="edgeStyle=orthogonalEdgeStyle;rounded=0;orthogonalLoop=1;jettySize=auto;html=1;startArrow=classic;startFill=1;endArrow=none;endFill=0;" edge="1" parent="1" source="H-I3dIYny0l2x0wNeQ6u-65">
          <mxGeometry relative="1" as="geometry">
            <mxPoint x="240" y="1110" as="targetPoint" />
          </mxGeometry>
        </mxCell>
        <mxCell id="H-I3dIYny0l2x0wNeQ6u-65" value="," style="ellipse;whiteSpace=wrap;html=1;fontSize=16;" vertex="1" parent="1">
          <mxGeometry x="280" y="1160" width="120" height="80" as="geometry" />
        </mxCell>
        <mxCell id="H-I3dIYny0l2x0wNeQ6u-66" style="edgeStyle=orthogonalEdgeStyle;rounded=0;orthogonalLoop=1;jettySize=auto;html=1;entryX=0;entryY=0.5;entryDx=0;entryDy=0;" edge="1" parent="1" source="H-I3dIYny0l2x0wNeQ6u-67" target="H-I3dIYny0l2x0wNeQ6u-69">
          <mxGeometry relative="1" as="geometry">
            <mxPoint x="650" y="1200" as="targetPoint" />
          </mxGeometry>
        </mxCell>
        <mxCell id="H-I3dIYny0l2x0wNeQ6u-67" value="ident" style="ellipse;whiteSpace=wrap;html=1;fontSize=16;" vertex="1" parent="1">
          <mxGeometry x="470" y="1160" width="120" height="80" as="geometry" />
        </mxCell>
        <mxCell id="H-I3dIYny0l2x0wNeQ6u-68" style="edgeStyle=orthogonalEdgeStyle;rounded=0;orthogonalLoop=1;jettySize=auto;html=1;" edge="1" parent="1" source="H-I3dIYny0l2x0wNeQ6u-69">
          <mxGeometry relative="1" as="geometry">
            <mxPoint x="850" y="1110" as="targetPoint" />
          </mxGeometry>
        </mxCell>
        <mxCell id="H-I3dIYny0l2x0wNeQ6u-69" value="Mais Var" style="rounded=0;whiteSpace=wrap;html=1;fontSize=16;" vertex="1" parent="1">
          <mxGeometry x="670" y="1170" width="120" height="60" as="geometry" />
        </mxCell>
        <mxCell id="H-I3dIYny0l2x0wNeQ6u-72" value="" style="endArrow=classic;html=1;rounded=0;endFill=1;" edge="1" parent="1">
          <mxGeometry width="50" height="50" relative="1" as="geometry">
            <mxPoint x="160" y="1110" as="sourcePoint" />
            <mxPoint x="920" y="1110" as="targetPoint" />
          </mxGeometry>
        </mxCell>
        <mxCell id="H-I3dIYny0l2x0wNeQ6u-73" value="Mais Const" style="text;html=1;align=center;verticalAlign=middle;whiteSpace=wrap;rounded=0;fontSize=16;fontStyle=1" vertex="1" parent="1">
          <mxGeometry x="1000" y="1040" width="90" height="30" as="geometry" />
        </mxCell>
        <mxCell id="H-I3dIYny0l2x0wNeQ6u-82" style="edgeStyle=orthogonalEdgeStyle;rounded=0;orthogonalLoop=1;jettySize=auto;html=1;entryX=0;entryY=0.5;entryDx=0;entryDy=0;" edge="1" parent="1" source="H-I3dIYny0l2x0wNeQ6u-84" target="H-I3dIYny0l2x0wNeQ6u-86">
          <mxGeometry relative="1" as="geometry" />
        </mxCell>
        <mxCell id="H-I3dIYny0l2x0wNeQ6u-83" style="edgeStyle=orthogonalEdgeStyle;rounded=0;orthogonalLoop=1;jettySize=auto;html=1;startArrow=classic;startFill=1;endArrow=none;endFill=0;" edge="1" parent="1" source="H-I3dIYny0l2x0wNeQ6u-84">
          <mxGeometry relative="1" as="geometry">
            <mxPoint x="1070" y="1110" as="targetPoint" />
          </mxGeometry>
        </mxCell>
        <mxCell id="H-I3dIYny0l2x0wNeQ6u-84" value="," style="ellipse;whiteSpace=wrap;html=1;fontSize=16;" vertex="1" parent="1">
          <mxGeometry x="1110" y="1160" width="120" height="80" as="geometry" />
        </mxCell>
        <mxCell id="H-I3dIYny0l2x0wNeQ6u-85" style="edgeStyle=orthogonalEdgeStyle;rounded=0;orthogonalLoop=1;jettySize=auto;html=1;" edge="1" parent="1" source="H-I3dIYny0l2x0wNeQ6u-86" target="H-I3dIYny0l2x0wNeQ6u-88">
          <mxGeometry relative="1" as="geometry" />
        </mxCell>
        <mxCell id="H-I3dIYny0l2x0wNeQ6u-86" value="ident" style="ellipse;whiteSpace=wrap;html=1;fontSize=16;" vertex="1" parent="1">
          <mxGeometry x="1300" y="1160" width="120" height="80" as="geometry" />
        </mxCell>
        <mxCell id="H-I3dIYny0l2x0wNeQ6u-87" style="edgeStyle=orthogonalEdgeStyle;rounded=0;orthogonalLoop=1;jettySize=auto;html=1;" edge="1" parent="1" source="H-I3dIYny0l2x0wNeQ6u-88" target="H-I3dIYny0l2x0wNeQ6u-90">
          <mxGeometry relative="1" as="geometry" />
        </mxCell>
        <mxCell id="H-I3dIYny0l2x0wNeQ6u-88" value="=" style="ellipse;whiteSpace=wrap;html=1;fontSize=16;" vertex="1" parent="1">
          <mxGeometry x="1480" y="1160" width="120" height="80" as="geometry" />
        </mxCell>
        <mxCell id="H-I3dIYny0l2x0wNeQ6u-89" style="edgeStyle=orthogonalEdgeStyle;rounded=0;orthogonalLoop=1;jettySize=auto;html=1;" edge="1" parent="1" source="H-I3dIYny0l2x0wNeQ6u-90" target="H-I3dIYny0l2x0wNeQ6u-92">
          <mxGeometry relative="1" as="geometry" />
        </mxCell>
        <mxCell id="H-I3dIYny0l2x0wNeQ6u-90" value="numero" style="ellipse;whiteSpace=wrap;html=1;fontSize=16;" vertex="1" parent="1">
          <mxGeometry x="1650" y="1160" width="120" height="80" as="geometry" />
        </mxCell>
        <mxCell id="H-I3dIYny0l2x0wNeQ6u-91" style="edgeStyle=orthogonalEdgeStyle;rounded=0;orthogonalLoop=1;jettySize=auto;html=1;" edge="1" parent="1" source="H-I3dIYny0l2x0wNeQ6u-92">
          <mxGeometry relative="1" as="geometry">
            <mxPoint x="2040" y="1110" as="targetPoint" />
          </mxGeometry>
        </mxCell>
        <mxCell id="H-I3dIYny0l2x0wNeQ6u-92" value="Mais Const" style="rounded=0;whiteSpace=wrap;html=1;fontSize=16;" vertex="1" parent="1">
          <mxGeometry x="1850" y="1170" width="120" height="60" as="geometry" />
        </mxCell>
        <mxCell id="H-I3dIYny0l2x0wNeQ6u-95" value="" style="endArrow=classic;html=1;rounded=0;endFill=1;" edge="1" parent="1">
          <mxGeometry width="50" height="50" relative="1" as="geometry">
            <mxPoint x="990" y="1110" as="sourcePoint" />
            <mxPoint x="2140" y="1110" as="targetPoint" />
          </mxGeometry>
        </mxCell>
        <mxCell id="H-I3dIYny0l2x0wNeQ6u-96" value="Procedimento" style="text;html=1;align=center;verticalAlign=middle;whiteSpace=wrap;rounded=0;fontSize=16;fontStyle=1" vertex="1" parent="1">
          <mxGeometry x="145" y="1340" width="140" height="30" as="geometry" />
        </mxCell>
        <mxCell id="H-I3dIYny0l2x0wNeQ6u-111" style="edgeStyle=orthogonalEdgeStyle;rounded=0;orthogonalLoop=1;jettySize=auto;html=1;exitX=1;exitY=0.5;exitDx=0;exitDy=0;endArrow=none;endFill=0;startArrow=classic;startFill=1;" edge="1" parent="1" source="H-I3dIYny0l2x0wNeQ6u-99">
          <mxGeometry relative="1" as="geometry">
            <mxPoint x="1139.54" y="1400" as="targetPoint" />
          </mxGeometry>
        </mxCell>
        <mxCell id="H-I3dIYny0l2x0wNeQ6u-112" style="edgeStyle=orthogonalEdgeStyle;rounded=0;orthogonalLoop=1;jettySize=auto;html=1;exitX=0;exitY=0.5;exitDx=0;exitDy=0;entryX=1;entryY=0.5;entryDx=0;entryDy=0;" edge="1" parent="1" source="H-I3dIYny0l2x0wNeQ6u-99" target="H-I3dIYny0l2x0wNeQ6u-101">
          <mxGeometry relative="1" as="geometry" />
        </mxCell>
        <mxCell id="H-I3dIYny0l2x0wNeQ6u-99" value="PROCEDURE" style="ellipse;whiteSpace=wrap;html=1;fontSize=16;" vertex="1" parent="1">
          <mxGeometry x="959.54" y="1450" width="120" height="80" as="geometry" />
        </mxCell>
        <mxCell id="H-I3dIYny0l2x0wNeQ6u-113" style="edgeStyle=orthogonalEdgeStyle;rounded=0;orthogonalLoop=1;jettySize=auto;html=1;exitX=0;exitY=0.5;exitDx=0;exitDy=0;entryX=1;entryY=0.5;entryDx=0;entryDy=0;" edge="1" parent="1" source="H-I3dIYny0l2x0wNeQ6u-101" target="H-I3dIYny0l2x0wNeQ6u-105">
          <mxGeometry relative="1" as="geometry" />
        </mxCell>
        <mxCell id="H-I3dIYny0l2x0wNeQ6u-101" value="ident" style="ellipse;whiteSpace=wrap;html=1;fontSize=16;" vertex="1" parent="1">
          <mxGeometry x="790" y="1450" width="120" height="80" as="geometry" />
        </mxCell>
        <mxCell id="H-I3dIYny0l2x0wNeQ6u-114" style="edgeStyle=orthogonalEdgeStyle;rounded=0;orthogonalLoop=1;jettySize=auto;html=1;exitX=0;exitY=0.5;exitDx=0;exitDy=0;entryX=1;entryY=0.5;entryDx=0;entryDy=0;" edge="1" parent="1" source="H-I3dIYny0l2x0wNeQ6u-105" target="H-I3dIYny0l2x0wNeQ6u-107">
          <mxGeometry relative="1" as="geometry" />
        </mxCell>
        <mxCell id="H-I3dIYny0l2x0wNeQ6u-105" value=";" style="ellipse;whiteSpace=wrap;html=1;fontSize=16;" vertex="1" parent="1">
          <mxGeometry x="600" y="1450" width="120" height="80" as="geometry" />
        </mxCell>
        <mxCell id="H-I3dIYny0l2x0wNeQ6u-106" value="" style="endArrow=classic;html=1;rounded=0;endFill=1;" edge="1" parent="1">
          <mxGeometry width="50" height="50" relative="1" as="geometry">
            <mxPoint x="150" y="1400" as="sourcePoint" />
            <mxPoint x="1300" y="1400" as="targetPoint" />
          </mxGeometry>
        </mxCell>
        <mxCell id="H-I3dIYny0l2x0wNeQ6u-115" style="edgeStyle=orthogonalEdgeStyle;rounded=0;orthogonalLoop=1;jettySize=auto;html=1;exitX=0;exitY=0.5;exitDx=0;exitDy=0;entryX=1;entryY=0.5;entryDx=0;entryDy=0;" edge="1" parent="1" source="H-I3dIYny0l2x0wNeQ6u-107" target="H-I3dIYny0l2x0wNeQ6u-108">
          <mxGeometry relative="1" as="geometry" />
        </mxCell>
        <mxCell id="H-I3dIYny0l2x0wNeQ6u-107" value="Bloco" style="rounded=0;whiteSpace=wrap;html=1;fontSize=16;" vertex="1" parent="1">
          <mxGeometry x="425" y="1460" width="120" height="60" as="geometry" />
        </mxCell>
        <mxCell id="H-I3dIYny0l2x0wNeQ6u-116" style="edgeStyle=orthogonalEdgeStyle;rounded=0;orthogonalLoop=1;jettySize=auto;html=1;exitX=0;exitY=0.5;exitDx=0;exitDy=0;" edge="1" parent="1" source="H-I3dIYny0l2x0wNeQ6u-108">
          <mxGeometry relative="1" as="geometry">
            <mxPoint x="220.00000000000023" y="1400" as="targetPoint" />
          </mxGeometry>
        </mxCell>
        <mxCell id="H-I3dIYny0l2x0wNeQ6u-108" value=";" style="ellipse;whiteSpace=wrap;html=1;fontSize=16;" vertex="1" parent="1">
          <mxGeometry x="260" y="1450" width="120" height="80" as="geometry" />
        </mxCell>
        <mxCell id="H-I3dIYny0l2x0wNeQ6u-117" value="Comando" style="text;html=1;align=center;verticalAlign=middle;whiteSpace=wrap;rounded=0;fontSize=16;fontStyle=1" vertex="1" parent="1">
          <mxGeometry x="170" y="1620" width="90" height="30" as="geometry" />
        </mxCell>
        <mxCell id="H-I3dIYny0l2x0wNeQ6u-118" style="edgeStyle=orthogonalEdgeStyle;rounded=0;orthogonalLoop=1;jettySize=auto;html=1;entryX=0;entryY=0.5;entryDx=0;entryDy=0;" edge="1" parent="1" source="H-I3dIYny0l2x0wNeQ6u-120" target="H-I3dIYny0l2x0wNeQ6u-122">
          <mxGeometry relative="1" as="geometry" />
        </mxCell>
        <mxCell id="H-I3dIYny0l2x0wNeQ6u-119" style="edgeStyle=orthogonalEdgeStyle;rounded=0;orthogonalLoop=1;jettySize=auto;html=1;startArrow=classic;startFill=1;endArrow=none;endFill=0;" edge="1" parent="1" source="H-I3dIYny0l2x0wNeQ6u-120">
          <mxGeometry relative="1" as="geometry">
            <mxPoint x="240" y="1690" as="targetPoint" />
          </mxGeometry>
        </mxCell>
        <mxCell id="H-I3dIYny0l2x0wNeQ6u-120" value="ident" style="ellipse;whiteSpace=wrap;html=1;fontSize=16;" vertex="1" parent="1">
          <mxGeometry x="280" y="1740" width="120" height="80" as="geometry" />
        </mxCell>
        <mxCell id="H-I3dIYny0l2x0wNeQ6u-121" style="edgeStyle=orthogonalEdgeStyle;rounded=0;orthogonalLoop=1;jettySize=auto;html=1;entryX=0;entryY=0.5;entryDx=0;entryDy=0;" edge="1" parent="1" source="H-I3dIYny0l2x0wNeQ6u-122" target="H-I3dIYny0l2x0wNeQ6u-128">
          <mxGeometry relative="1" as="geometry">
            <mxPoint x="650" y="1780" as="targetPoint" />
          </mxGeometry>
        </mxCell>
        <mxCell id="H-I3dIYny0l2x0wNeQ6u-122" value=":=" style="ellipse;whiteSpace=wrap;html=1;fontSize=16;" vertex="1" parent="1">
          <mxGeometry x="470" y="1740" width="120" height="80" as="geometry" />
        </mxCell>
        <mxCell id="H-I3dIYny0l2x0wNeQ6u-127" style="edgeStyle=orthogonalEdgeStyle;rounded=0;orthogonalLoop=1;jettySize=auto;html=1;" edge="1" parent="1" source="H-I3dIYny0l2x0wNeQ6u-128">
          <mxGeometry relative="1" as="geometry">
            <mxPoint x="1160" y="1680" as="targetPoint" />
          </mxGeometry>
        </mxCell>
        <mxCell id="H-I3dIYny0l2x0wNeQ6u-128" value="Expressão" style="rounded=0;whiteSpace=wrap;html=1;fontSize=16;" vertex="1" parent="1">
          <mxGeometry x="659.5" y="1750" width="120" height="60" as="geometry" />
        </mxCell>
        <mxCell id="H-I3dIYny0l2x0wNeQ6u-129" value="" style="endArrow=classic;html=1;rounded=0;endFill=1;" edge="1" parent="1">
          <mxGeometry width="50" height="50" relative="1" as="geometry">
            <mxPoint x="160" y="1690" as="sourcePoint" />
            <mxPoint x="1310" y="1690" as="targetPoint" />
          </mxGeometry>
        </mxCell>
        <mxCell id="H-I3dIYny0l2x0wNeQ6u-142" style="edgeStyle=orthogonalEdgeStyle;rounded=0;orthogonalLoop=1;jettySize=auto;html=1;exitX=0;exitY=0.5;exitDx=0;exitDy=0;endArrow=none;endFill=0;startArrow=classic;startFill=1;" edge="1" parent="1" source="H-I3dIYny0l2x0wNeQ6u-131">
          <mxGeometry relative="1" as="geometry">
            <mxPoint x="240" y="1780" as="targetPoint" />
          </mxGeometry>
        </mxCell>
        <mxCell id="H-I3dIYny0l2x0wNeQ6u-145" style="edgeStyle=orthogonalEdgeStyle;rounded=0;orthogonalLoop=1;jettySize=auto;html=1;exitX=1;exitY=0.5;exitDx=0;exitDy=0;entryX=0;entryY=0.5;entryDx=0;entryDy=0;" edge="1" parent="1" source="H-I3dIYny0l2x0wNeQ6u-131" target="H-I3dIYny0l2x0wNeQ6u-132">
          <mxGeometry relative="1" as="geometry" />
        </mxCell>
        <mxCell id="H-I3dIYny0l2x0wNeQ6u-131" value="CALL" style="ellipse;whiteSpace=wrap;html=1;fontSize=16;" vertex="1" parent="1">
          <mxGeometry x="280" y="1890" width="120" height="80" as="geometry" />
        </mxCell>
        <mxCell id="H-I3dIYny0l2x0wNeQ6u-161" style="edgeStyle=orthogonalEdgeStyle;rounded=0;orthogonalLoop=1;jettySize=auto;html=1;endArrow=none;endFill=0;" edge="1" parent="1" source="H-I3dIYny0l2x0wNeQ6u-132">
          <mxGeometry relative="1" as="geometry">
            <mxPoint x="1160" y="1780" as="targetPoint" />
          </mxGeometry>
        </mxCell>
        <mxCell id="H-I3dIYny0l2x0wNeQ6u-132" value="ident" style="ellipse;whiteSpace=wrap;html=1;fontSize=16;" vertex="1" parent="1">
          <mxGeometry x="470" y="1890" width="120" height="80" as="geometry" />
        </mxCell>
        <mxCell id="H-I3dIYny0l2x0wNeQ6u-143" style="edgeStyle=orthogonalEdgeStyle;rounded=0;orthogonalLoop=1;jettySize=auto;html=1;exitX=0;exitY=0.5;exitDx=0;exitDy=0;endArrow=none;endFill=0;startArrow=classic;startFill=1;" edge="1" parent="1" source="H-I3dIYny0l2x0wNeQ6u-133">
          <mxGeometry relative="1" as="geometry">
            <mxPoint x="240" y="1930" as="targetPoint" />
          </mxGeometry>
        </mxCell>
        <mxCell id="H-I3dIYny0l2x0wNeQ6u-146" style="edgeStyle=orthogonalEdgeStyle;rounded=0;orthogonalLoop=1;jettySize=auto;html=1;exitX=1;exitY=0.5;exitDx=0;exitDy=0;entryX=0;entryY=0.5;entryDx=0;entryDy=0;" edge="1" parent="1" source="H-I3dIYny0l2x0wNeQ6u-133" target="H-I3dIYny0l2x0wNeQ6u-134">
          <mxGeometry relative="1" as="geometry" />
        </mxCell>
        <mxCell id="H-I3dIYny0l2x0wNeQ6u-133" value="BEGIN" style="ellipse;whiteSpace=wrap;html=1;fontSize=16;" vertex="1" parent="1">
          <mxGeometry x="280" y="2030" width="120" height="80" as="geometry" />
        </mxCell>
        <mxCell id="H-I3dIYny0l2x0wNeQ6u-149" style="edgeStyle=orthogonalEdgeStyle;rounded=0;orthogonalLoop=1;jettySize=auto;html=1;exitX=1;exitY=0.5;exitDx=0;exitDy=0;" edge="1" parent="1" source="H-I3dIYny0l2x0wNeQ6u-134" target="H-I3dIYny0l2x0wNeQ6u-135">
          <mxGeometry relative="1" as="geometry" />
        </mxCell>
        <mxCell id="H-I3dIYny0l2x0wNeQ6u-134" value="Comando" style="rounded=0;whiteSpace=wrap;html=1;fontSize=16;" vertex="1" parent="1">
          <mxGeometry x="470" y="2040" width="120" height="60" as="geometry" />
        </mxCell>
        <mxCell id="H-I3dIYny0l2x0wNeQ6u-152" style="edgeStyle=orthogonalEdgeStyle;rounded=0;orthogonalLoop=1;jettySize=auto;html=1;" edge="1" parent="1" source="H-I3dIYny0l2x0wNeQ6u-135" target="H-I3dIYny0l2x0wNeQ6u-137">
          <mxGeometry relative="1" as="geometry" />
        </mxCell>
        <mxCell id="H-I3dIYny0l2x0wNeQ6u-135" value="Mais cmd" style="rounded=0;whiteSpace=wrap;html=1;fontSize=16;" vertex="1" parent="1">
          <mxGeometry x="659.5" y="2040" width="120" height="60" as="geometry" />
        </mxCell>
        <mxCell id="H-I3dIYny0l2x0wNeQ6u-162" style="edgeStyle=orthogonalEdgeStyle;rounded=0;orthogonalLoop=1;jettySize=auto;html=1;exitX=1;exitY=0.5;exitDx=0;exitDy=0;endArrow=none;endFill=0;" edge="1" parent="1" source="H-I3dIYny0l2x0wNeQ6u-137">
          <mxGeometry relative="1" as="geometry">
            <mxPoint x="1160" y="1910" as="targetPoint" />
          </mxGeometry>
        </mxCell>
        <mxCell id="H-I3dIYny0l2x0wNeQ6u-137" value="END" style="ellipse;whiteSpace=wrap;html=1;fontSize=16;" vertex="1" parent="1">
          <mxGeometry x="850" y="2030" width="120" height="80" as="geometry" />
        </mxCell>
        <mxCell id="H-I3dIYny0l2x0wNeQ6u-144" style="edgeStyle=orthogonalEdgeStyle;rounded=0;orthogonalLoop=1;jettySize=auto;html=1;exitX=0;exitY=0.5;exitDx=0;exitDy=0;endArrow=none;endFill=0;startArrow=classic;startFill=1;" edge="1" parent="1" source="H-I3dIYny0l2x0wNeQ6u-138">
          <mxGeometry relative="1" as="geometry">
            <mxPoint x="240" y="2060" as="targetPoint" />
          </mxGeometry>
        </mxCell>
        <mxCell id="H-I3dIYny0l2x0wNeQ6u-148" style="edgeStyle=orthogonalEdgeStyle;rounded=0;orthogonalLoop=1;jettySize=auto;html=1;exitX=1;exitY=0.5;exitDx=0;exitDy=0;entryX=0;entryY=0.5;entryDx=0;entryDy=0;" edge="1" parent="1" source="H-I3dIYny0l2x0wNeQ6u-138" target="H-I3dIYny0l2x0wNeQ6u-139">
          <mxGeometry relative="1" as="geometry" />
        </mxCell>
        <mxCell id="H-I3dIYny0l2x0wNeQ6u-138" value="IF" style="ellipse;whiteSpace=wrap;html=1;fontSize=16;" vertex="1" parent="1">
          <mxGeometry x="280" y="2160" width="120" height="80" as="geometry" />
        </mxCell>
        <mxCell id="H-I3dIYny0l2x0wNeQ6u-150" style="edgeStyle=orthogonalEdgeStyle;rounded=0;orthogonalLoop=1;jettySize=auto;html=1;" edge="1" parent="1" source="H-I3dIYny0l2x0wNeQ6u-139" target="H-I3dIYny0l2x0wNeQ6u-141">
          <mxGeometry relative="1" as="geometry" />
        </mxCell>
        <mxCell id="H-I3dIYny0l2x0wNeQ6u-139" value="Condição" style="rounded=0;whiteSpace=wrap;html=1;fontSize=16;" vertex="1" parent="1">
          <mxGeometry x="470" y="2170" width="120" height="60" as="geometry" />
        </mxCell>
        <mxCell id="H-I3dIYny0l2x0wNeQ6u-163" style="edgeStyle=orthogonalEdgeStyle;rounded=0;orthogonalLoop=1;jettySize=auto;html=1;endArrow=none;endFill=0;" edge="1" parent="1" source="H-I3dIYny0l2x0wNeQ6u-140">
          <mxGeometry relative="1" as="geometry">
            <mxPoint x="1160" y="2050" as="targetPoint" />
          </mxGeometry>
        </mxCell>
        <mxCell id="H-I3dIYny0l2x0wNeQ6u-140" value="Comando" style="rounded=0;whiteSpace=wrap;html=1;fontSize=16;" vertex="1" parent="1">
          <mxGeometry x="850" y="2170" width="120" height="60" as="geometry" />
        </mxCell>
        <mxCell id="H-I3dIYny0l2x0wNeQ6u-151" style="edgeStyle=orthogonalEdgeStyle;rounded=0;orthogonalLoop=1;jettySize=auto;html=1;" edge="1" parent="1" source="H-I3dIYny0l2x0wNeQ6u-141" target="H-I3dIYny0l2x0wNeQ6u-140">
          <mxGeometry relative="1" as="geometry" />
        </mxCell>
        <mxCell id="H-I3dIYny0l2x0wNeQ6u-141" value="THEN" style="ellipse;whiteSpace=wrap;html=1;fontSize=16;" vertex="1" parent="1">
          <mxGeometry x="659.5" y="2160" width="120" height="80" as="geometry" />
        </mxCell>
        <mxCell id="H-I3dIYny0l2x0wNeQ6u-153" style="edgeStyle=orthogonalEdgeStyle;rounded=0;orthogonalLoop=1;jettySize=auto;html=1;exitX=0;exitY=0.5;exitDx=0;exitDy=0;endArrow=none;endFill=0;startArrow=classic;startFill=1;" edge="1" parent="1" source="H-I3dIYny0l2x0wNeQ6u-155">
          <mxGeometry relative="1" as="geometry">
            <mxPoint x="240" y="2200" as="targetPoint" />
          </mxGeometry>
        </mxCell>
        <mxCell id="H-I3dIYny0l2x0wNeQ6u-154" style="edgeStyle=orthogonalEdgeStyle;rounded=0;orthogonalLoop=1;jettySize=auto;html=1;exitX=1;exitY=0.5;exitDx=0;exitDy=0;entryX=0;entryY=0.5;entryDx=0;entryDy=0;" edge="1" parent="1" source="H-I3dIYny0l2x0wNeQ6u-155" target="H-I3dIYny0l2x0wNeQ6u-157">
          <mxGeometry relative="1" as="geometry" />
        </mxCell>
        <mxCell id="H-I3dIYny0l2x0wNeQ6u-155" value="WHILE" style="ellipse;whiteSpace=wrap;html=1;fontSize=16;" vertex="1" parent="1">
          <mxGeometry x="280" y="2300" width="120" height="80" as="geometry" />
        </mxCell>
        <mxCell id="H-I3dIYny0l2x0wNeQ6u-156" style="edgeStyle=orthogonalEdgeStyle;rounded=0;orthogonalLoop=1;jettySize=auto;html=1;" edge="1" parent="1" source="H-I3dIYny0l2x0wNeQ6u-157" target="H-I3dIYny0l2x0wNeQ6u-160">
          <mxGeometry relative="1" as="geometry" />
        </mxCell>
        <mxCell id="H-I3dIYny0l2x0wNeQ6u-157" value="Condição" style="rounded=0;whiteSpace=wrap;html=1;fontSize=16;" vertex="1" parent="1">
          <mxGeometry x="470" y="2310" width="120" height="60" as="geometry" />
        </mxCell>
        <mxCell id="H-I3dIYny0l2x0wNeQ6u-164" style="edgeStyle=orthogonalEdgeStyle;rounded=0;orthogonalLoop=1;jettySize=auto;html=1;endArrow=none;endFill=0;" edge="1" parent="1" source="H-I3dIYny0l2x0wNeQ6u-158">
          <mxGeometry relative="1" as="geometry">
            <mxPoint x="1160" y="2170" as="targetPoint" />
          </mxGeometry>
        </mxCell>
        <mxCell id="H-I3dIYny0l2x0wNeQ6u-158" value="Comando" style="rounded=0;whiteSpace=wrap;html=1;fontSize=16;" vertex="1" parent="1">
          <mxGeometry x="850" y="2310" width="120" height="60" as="geometry" />
        </mxCell>
        <mxCell id="H-I3dIYny0l2x0wNeQ6u-159" style="edgeStyle=orthogonalEdgeStyle;rounded=0;orthogonalLoop=1;jettySize=auto;html=1;" edge="1" parent="1" source="H-I3dIYny0l2x0wNeQ6u-160" target="H-I3dIYny0l2x0wNeQ6u-158">
          <mxGeometry relative="1" as="geometry" />
        </mxCell>
        <mxCell id="H-I3dIYny0l2x0wNeQ6u-160" value="DO" style="ellipse;whiteSpace=wrap;html=1;fontSize=16;" vertex="1" parent="1">
          <mxGeometry x="659.5" y="2300" width="120" height="80" as="geometry" />
        </mxCell>
        <mxCell id="H-I3dIYny0l2x0wNeQ6u-165" value="Mais Cmd" style="text;html=1;align=center;verticalAlign=middle;whiteSpace=wrap;rounded=0;fontSize=16;fontStyle=1" vertex="1" parent="1">
          <mxGeometry x="1420" y="1320" width="90" height="30" as="geometry" />
        </mxCell>
        <mxCell id="H-I3dIYny0l2x0wNeQ6u-176" style="edgeStyle=orthogonalEdgeStyle;rounded=0;orthogonalLoop=1;jettySize=auto;html=1;entryX=1;entryY=0.5;entryDx=0;entryDy=0;" edge="1" parent="1" source="H-I3dIYny0l2x0wNeQ6u-168" target="H-I3dIYny0l2x0wNeQ6u-174">
          <mxGeometry relative="1" as="geometry" />
        </mxCell>
        <mxCell id="H-I3dIYny0l2x0wNeQ6u-177" style="edgeStyle=orthogonalEdgeStyle;rounded=0;orthogonalLoop=1;jettySize=auto;html=1;endArrow=none;endFill=0;startArrow=classic;startFill=1;" edge="1" parent="1" source="H-I3dIYny0l2x0wNeQ6u-168">
          <mxGeometry relative="1" as="geometry">
            <mxPoint x="2080" y="1400" as="targetPoint" />
          </mxGeometry>
        </mxCell>
        <mxCell id="H-I3dIYny0l2x0wNeQ6u-168" value=";" style="ellipse;whiteSpace=wrap;html=1;fontSize=16;" vertex="1" parent="1">
          <mxGeometry x="1880" y="1450" width="120" height="80" as="geometry" />
        </mxCell>
        <mxCell id="H-I3dIYny0l2x0wNeQ6u-173" value="" style="endArrow=classic;html=1;rounded=0;endFill=1;" edge="1" parent="1">
          <mxGeometry width="50" height="50" relative="1" as="geometry">
            <mxPoint x="1410" y="1400" as="sourcePoint" />
            <mxPoint x="2170" y="1400" as="targetPoint" />
          </mxGeometry>
        </mxCell>
        <mxCell id="H-I3dIYny0l2x0wNeQ6u-175" style="edgeStyle=orthogonalEdgeStyle;rounded=0;orthogonalLoop=1;jettySize=auto;html=1;exitX=0;exitY=0.5;exitDx=0;exitDy=0;" edge="1" parent="1" source="H-I3dIYny0l2x0wNeQ6u-174">
          <mxGeometry relative="1" as="geometry">
            <mxPoint x="1590" y="1400" as="targetPoint" />
          </mxGeometry>
        </mxCell>
        <mxCell id="H-I3dIYny0l2x0wNeQ6u-174" value="Comando" style="rounded=0;whiteSpace=wrap;html=1;fontSize=16;" vertex="1" parent="1">
          <mxGeometry x="1670" y="1460" width="120" height="60" as="geometry" />
        </mxCell>
        <mxCell id="H-I3dIYny0l2x0wNeQ6u-178" value="Expressão" style="text;html=1;align=center;verticalAlign=middle;whiteSpace=wrap;rounded=0;fontSize=16;fontStyle=1" vertex="1" parent="1">
          <mxGeometry x="1420" y="1630" width="140" height="30" as="geometry" />
        </mxCell>
        <mxCell id="H-I3dIYny0l2x0wNeQ6u-180" style="edgeStyle=orthogonalEdgeStyle;rounded=0;orthogonalLoop=1;jettySize=auto;html=1;exitX=0;exitY=0.5;exitDx=0;exitDy=0;entryX=1;entryY=0.5;entryDx=0;entryDy=0;" edge="1" parent="1" source="H-I3dIYny0l2x0wNeQ6u-181">
          <mxGeometry relative="1" as="geometry">
            <mxPoint x="2185" y="1780" as="targetPoint" />
          </mxGeometry>
        </mxCell>
        <mxCell id="H-I3dIYny0l2x0wNeQ6u-182" style="edgeStyle=orthogonalEdgeStyle;rounded=0;orthogonalLoop=1;jettySize=auto;html=1;exitX=0;exitY=0.5;exitDx=0;exitDy=0;entryX=1;entryY=0.5;entryDx=0;entryDy=0;" edge="1" parent="1" source="H-I3dIYny0l2x0wNeQ6u-183">
          <mxGeometry relative="1" as="geometry">
            <mxPoint x="1995" y="1780" as="targetPoint" />
          </mxGeometry>
        </mxCell>
        <mxCell id="H-I3dIYny0l2x0wNeQ6u-186" value="" style="endArrow=classic;html=1;rounded=0;endFill=1;" edge="1" parent="1">
          <mxGeometry width="50" height="50" relative="1" as="geometry">
            <mxPoint x="1425" y="1690" as="sourcePoint" />
            <mxPoint x="2575" y="1690" as="targetPoint" />
          </mxGeometry>
        </mxCell>
        <mxCell id="H-I3dIYny0l2x0wNeQ6u-194" style="edgeStyle=orthogonalEdgeStyle;rounded=0;orthogonalLoop=1;jettySize=auto;html=1;exitX=0;exitY=0.5;exitDx=0;exitDy=0;endArrow=none;endFill=0;startArrow=classic;startFill=1;" edge="1" parent="1" source="H-I3dIYny0l2x0wNeQ6u-188">
          <mxGeometry relative="1" as="geometry">
            <mxPoint x="1590" y="1690" as="targetPoint" />
          </mxGeometry>
        </mxCell>
        <mxCell id="H-I3dIYny0l2x0wNeQ6u-195" style="edgeStyle=orthogonalEdgeStyle;rounded=0;orthogonalLoop=1;jettySize=auto;html=1;exitX=1;exitY=0.5;exitDx=0;exitDy=0;entryX=0;entryY=0.5;entryDx=0;entryDy=0;" edge="1" parent="1" source="H-I3dIYny0l2x0wNeQ6u-188" target="H-I3dIYny0l2x0wNeQ6u-192">
          <mxGeometry relative="1" as="geometry" />
        </mxCell>
        <mxCell id="H-I3dIYny0l2x0wNeQ6u-188" value="Operador Unário" style="rounded=0;whiteSpace=wrap;html=1;fontSize=16;" vertex="1" parent="1">
          <mxGeometry x="1670" y="1750" width="150" height="60" as="geometry" />
        </mxCell>
        <mxCell id="H-I3dIYny0l2x0wNeQ6u-197" style="edgeStyle=orthogonalEdgeStyle;rounded=0;orthogonalLoop=1;jettySize=auto;html=1;exitX=1;exitY=0.5;exitDx=0;exitDy=0;" edge="1" parent="1" source="H-I3dIYny0l2x0wNeQ6u-191">
          <mxGeometry relative="1" as="geometry">
            <mxPoint x="2300" y="1690" as="targetPoint" />
          </mxGeometry>
        </mxCell>
        <mxCell id="H-I3dIYny0l2x0wNeQ6u-191" value="Mais Termos" style="rounded=0;whiteSpace=wrap;html=1;fontSize=16;" vertex="1" parent="1">
          <mxGeometry x="2100" y="1750" width="120" height="60" as="geometry" />
        </mxCell>
        <mxCell id="H-I3dIYny0l2x0wNeQ6u-196" style="edgeStyle=orthogonalEdgeStyle;rounded=0;orthogonalLoop=1;jettySize=auto;html=1;exitX=1;exitY=0.5;exitDx=0;exitDy=0;" edge="1" parent="1" source="H-I3dIYny0l2x0wNeQ6u-192" target="H-I3dIYny0l2x0wNeQ6u-191">
          <mxGeometry relative="1" as="geometry" />
        </mxCell>
        <mxCell id="H-I3dIYny0l2x0wNeQ6u-192" value="Termo" style="rounded=0;whiteSpace=wrap;html=1;fontSize=16;" vertex="1" parent="1">
          <mxGeometry x="1900" y="1750" width="120" height="60" as="geometry" />
        </mxCell>
        <mxCell id="H-I3dIYny0l2x0wNeQ6u-198" value="Operador Unário" style="text;html=1;align=center;verticalAlign=middle;whiteSpace=wrap;rounded=0;fontSize=16;fontStyle=1" vertex="1" parent="1">
          <mxGeometry x="1420" y="1880" width="140" height="30" as="geometry" />
        </mxCell>
        <mxCell id="H-I3dIYny0l2x0wNeQ6u-199" value="" style="endArrow=classic;html=1;rounded=0;endFill=1;" edge="1" parent="1">
          <mxGeometry width="50" height="50" relative="1" as="geometry">
            <mxPoint x="1425" y="1940" as="sourcePoint" />
            <mxPoint x="2090" y="1940" as="targetPoint" />
          </mxGeometry>
        </mxCell>
        <mxCell id="H-I3dIYny0l2x0wNeQ6u-200" style="edgeStyle=orthogonalEdgeStyle;rounded=0;orthogonalLoop=1;jettySize=auto;html=1;endArrow=none;endFill=0;startArrow=classic;startFill=1;" edge="1" parent="1" source="H-I3dIYny0l2x0wNeQ6u-207">
          <mxGeometry relative="1" as="geometry">
            <mxPoint x="1590" y="1940" as="targetPoint" />
            <mxPoint x="1670" y="2030" as="sourcePoint" />
          </mxGeometry>
        </mxCell>
        <mxCell id="H-I3dIYny0l2x0wNeQ6u-211" style="edgeStyle=orthogonalEdgeStyle;rounded=0;orthogonalLoop=1;jettySize=auto;html=1;exitX=1;exitY=0.5;exitDx=0;exitDy=0;endArrow=none;endFill=0;" edge="1" parent="1" source="H-I3dIYny0l2x0wNeQ6u-207">
          <mxGeometry relative="1" as="geometry">
            <mxPoint x="1950" y="2030" as="targetPoint" />
          </mxGeometry>
        </mxCell>
        <mxCell id="H-I3dIYny0l2x0wNeQ6u-207" value="+" style="ellipse;whiteSpace=wrap;html=1;fontSize=16;" vertex="1" parent="1">
          <mxGeometry x="1725" y="1990" width="120" height="80" as="geometry" />
        </mxCell>
        <mxCell id="H-I3dIYny0l2x0wNeQ6u-209" style="edgeStyle=orthogonalEdgeStyle;rounded=0;orthogonalLoop=1;jettySize=auto;html=1;exitX=0;exitY=0.5;exitDx=0;exitDy=0;endArrow=none;endFill=0;startArrow=classic;startFill=1;" edge="1" parent="1" source="H-I3dIYny0l2x0wNeQ6u-208">
          <mxGeometry relative="1" as="geometry">
            <mxPoint x="1590" y="2010" as="targetPoint" />
          </mxGeometry>
        </mxCell>
        <mxCell id="H-I3dIYny0l2x0wNeQ6u-210" style="edgeStyle=orthogonalEdgeStyle;rounded=0;orthogonalLoop=1;jettySize=auto;html=1;" edge="1" parent="1" source="H-I3dIYny0l2x0wNeQ6u-208">
          <mxGeometry relative="1" as="geometry">
            <mxPoint x="1950" y="1940" as="targetPoint" />
          </mxGeometry>
        </mxCell>
        <mxCell id="H-I3dIYny0l2x0wNeQ6u-208" value="-" style="ellipse;whiteSpace=wrap;html=1;fontSize=16;" vertex="1" parent="1">
          <mxGeometry x="1720" y="2110" width="120" height="80" as="geometry" />
        </mxCell>
        <mxCell id="H-I3dIYny0l2x0wNeQ6u-212" value="Termo" style="text;html=1;align=center;verticalAlign=middle;whiteSpace=wrap;rounded=0;fontSize=16;fontStyle=1" vertex="1" parent="1">
          <mxGeometry x="1380" y="2270" width="140" height="30" as="geometry" />
        </mxCell>
        <mxCell id="H-I3dIYny0l2x0wNeQ6u-213" value="" style="endArrow=classic;html=1;rounded=0;endFill=1;" edge="1" parent="1">
          <mxGeometry width="50" height="50" relative="1" as="geometry">
            <mxPoint x="1385" y="2330" as="sourcePoint" />
            <mxPoint x="2090" y="2330" as="targetPoint" />
          </mxGeometry>
        </mxCell>
        <mxCell id="H-I3dIYny0l2x0wNeQ6u-214" style="edgeStyle=orthogonalEdgeStyle;rounded=0;orthogonalLoop=1;jettySize=auto;html=1;endArrow=none;endFill=0;startArrow=classic;startFill=1;exitX=0;exitY=0.5;exitDx=0;exitDy=0;" edge="1" parent="1" source="H-I3dIYny0l2x0wNeQ6u-220">
          <mxGeometry relative="1" as="geometry">
            <mxPoint x="1550" y="2330" as="targetPoint" />
            <mxPoint x="1685" y="2420" as="sourcePoint" />
          </mxGeometry>
        </mxCell>
        <mxCell id="H-I3dIYny0l2x0wNeQ6u-222" style="edgeStyle=orthogonalEdgeStyle;rounded=0;orthogonalLoop=1;jettySize=auto;html=1;exitX=1;exitY=0.5;exitDx=0;exitDy=0;" edge="1" parent="1" source="H-I3dIYny0l2x0wNeQ6u-220" target="H-I3dIYny0l2x0wNeQ6u-221">
          <mxGeometry relative="1" as="geometry" />
        </mxCell>
        <mxCell id="H-I3dIYny0l2x0wNeQ6u-220" value="Fator" style="rounded=0;whiteSpace=wrap;html=1;fontSize=16;" vertex="1" parent="1">
          <mxGeometry x="1620" y="2390" width="150" height="60" as="geometry" />
        </mxCell>
        <mxCell id="H-I3dIYny0l2x0wNeQ6u-223" style="edgeStyle=orthogonalEdgeStyle;rounded=0;orthogonalLoop=1;jettySize=auto;html=1;exitX=1;exitY=0.5;exitDx=0;exitDy=0;" edge="1" parent="1" source="H-I3dIYny0l2x0wNeQ6u-221">
          <mxGeometry relative="1" as="geometry">
            <mxPoint x="2020" y="2330" as="targetPoint" />
          </mxGeometry>
        </mxCell>
        <mxCell id="H-I3dIYny0l2x0wNeQ6u-221" value="Mais Fatores" style="rounded=0;whiteSpace=wrap;html=1;fontSize=16;" vertex="1" parent="1">
          <mxGeometry x="1850" y="2390" width="120" height="60" as="geometry" />
        </mxCell>
        <mxCell id="H-I3dIYny0l2x0wNeQ6u-224" value="Mais Termos" style="text;html=1;align=center;verticalAlign=middle;whiteSpace=wrap;rounded=0;fontSize=16;fontStyle=1" vertex="1" parent="1">
          <mxGeometry x="2280" y="1320" width="130" height="30" as="geometry" />
        </mxCell>
        <mxCell id="H-I3dIYny0l2x0wNeQ6u-225" style="edgeStyle=orthogonalEdgeStyle;rounded=0;orthogonalLoop=1;jettySize=auto;html=1;entryX=1;entryY=0.5;entryDx=0;entryDy=0;" edge="1" parent="1" source="H-I3dIYny0l2x0wNeQ6u-227" target="H-I3dIYny0l2x0wNeQ6u-230">
          <mxGeometry relative="1" as="geometry" />
        </mxCell>
        <mxCell id="H-I3dIYny0l2x0wNeQ6u-226" style="edgeStyle=orthogonalEdgeStyle;rounded=0;orthogonalLoop=1;jettySize=auto;html=1;endArrow=none;endFill=0;startArrow=classic;startFill=1;" edge="1" parent="1" source="H-I3dIYny0l2x0wNeQ6u-227">
          <mxGeometry relative="1" as="geometry">
            <mxPoint x="2940" y="1400" as="targetPoint" />
          </mxGeometry>
        </mxCell>
        <mxCell id="H-I3dIYny0l2x0wNeQ6u-227" value="+" style="ellipse;whiteSpace=wrap;html=1;fontSize=16;" vertex="1" parent="1">
          <mxGeometry x="2740" y="1450" width="120" height="80" as="geometry" />
        </mxCell>
        <mxCell id="H-I3dIYny0l2x0wNeQ6u-228" value="" style="endArrow=classic;html=1;rounded=0;endFill=1;" edge="1" parent="1">
          <mxGeometry width="50" height="50" relative="1" as="geometry">
            <mxPoint x="2270" y="1400" as="sourcePoint" />
            <mxPoint x="3030" y="1400" as="targetPoint" />
          </mxGeometry>
        </mxCell>
        <mxCell id="H-I3dIYny0l2x0wNeQ6u-229" style="edgeStyle=orthogonalEdgeStyle;rounded=0;orthogonalLoop=1;jettySize=auto;html=1;exitX=0;exitY=0.5;exitDx=0;exitDy=0;" edge="1" parent="1" source="H-I3dIYny0l2x0wNeQ6u-230">
          <mxGeometry relative="1" as="geometry">
            <mxPoint x="2450" y="1400" as="targetPoint" />
          </mxGeometry>
        </mxCell>
        <mxCell id="H-I3dIYny0l2x0wNeQ6u-230" value="Termo" style="rounded=0;whiteSpace=wrap;html=1;fontSize=16;" vertex="1" parent="1">
          <mxGeometry x="2530" y="1460" width="120" height="60" as="geometry" />
        </mxCell>
        <mxCell id="H-I3dIYny0l2x0wNeQ6u-231" style="edgeStyle=orthogonalEdgeStyle;rounded=0;orthogonalLoop=1;jettySize=auto;html=1;entryX=1;entryY=0.5;entryDx=0;entryDy=0;" edge="1" parent="1" source="H-I3dIYny0l2x0wNeQ6u-232" target="H-I3dIYny0l2x0wNeQ6u-233">
          <mxGeometry relative="1" as="geometry" />
        </mxCell>
        <mxCell id="H-I3dIYny0l2x0wNeQ6u-235" style="edgeStyle=orthogonalEdgeStyle;rounded=0;orthogonalLoop=1;jettySize=auto;html=1;exitX=1;exitY=0.5;exitDx=0;exitDy=0;endArrow=none;endFill=0;startArrow=classic;startFill=1;" edge="1" parent="1" source="H-I3dIYny0l2x0wNeQ6u-232">
          <mxGeometry relative="1" as="geometry">
            <mxPoint x="2940" y="1490" as="targetPoint" />
          </mxGeometry>
        </mxCell>
        <mxCell id="H-I3dIYny0l2x0wNeQ6u-232" value="-" style="ellipse;whiteSpace=wrap;html=1;fontSize=16;" vertex="1" parent="1">
          <mxGeometry x="2740" y="1550" width="120" height="80" as="geometry" />
        </mxCell>
        <mxCell id="H-I3dIYny0l2x0wNeQ6u-234" style="edgeStyle=orthogonalEdgeStyle;rounded=0;orthogonalLoop=1;jettySize=auto;html=1;exitX=0;exitY=0.5;exitDx=0;exitDy=0;endArrow=none;endFill=0;" edge="1" parent="1" source="H-I3dIYny0l2x0wNeQ6u-233">
          <mxGeometry relative="1" as="geometry">
            <mxPoint x="2450" y="1480" as="targetPoint" />
          </mxGeometry>
        </mxCell>
        <mxCell id="H-I3dIYny0l2x0wNeQ6u-233" value="Termo" style="rounded=0;whiteSpace=wrap;html=1;fontSize=16;" vertex="1" parent="1">
          <mxGeometry x="2530" y="1560" width="120" height="60" as="geometry" />
        </mxCell>
        <mxCell id="H-I3dIYny0l2x0wNeQ6u-243" value="Fator" style="text;html=1;align=center;verticalAlign=middle;whiteSpace=wrap;rounded=0;fontSize=16;fontStyle=1" vertex="1" parent="1">
          <mxGeometry x="2200" y="1880" width="140" height="30" as="geometry" />
        </mxCell>
        <mxCell id="H-I3dIYny0l2x0wNeQ6u-244" value="" style="endArrow=classic;html=1;rounded=0;endFill=1;" edge="1" parent="1">
          <mxGeometry width="50" height="50" relative="1" as="geometry">
            <mxPoint x="2205" y="1940" as="sourcePoint" />
            <mxPoint x="3150" y="1940" as="targetPoint" />
          </mxGeometry>
        </mxCell>
        <mxCell id="H-I3dIYny0l2x0wNeQ6u-245" style="edgeStyle=orthogonalEdgeStyle;rounded=0;orthogonalLoop=1;jettySize=auto;html=1;endArrow=none;endFill=0;startArrow=classic;startFill=1;" edge="1" parent="1" source="H-I3dIYny0l2x0wNeQ6u-247">
          <mxGeometry relative="1" as="geometry">
            <mxPoint x="2370" y="1940" as="targetPoint" />
            <mxPoint x="2450" y="2030" as="sourcePoint" />
          </mxGeometry>
        </mxCell>
        <mxCell id="H-I3dIYny0l2x0wNeQ6u-260" style="edgeStyle=orthogonalEdgeStyle;rounded=0;orthogonalLoop=1;jettySize=auto;html=1;endArrow=none;endFill=0;" edge="1" parent="1" source="H-I3dIYny0l2x0wNeQ6u-247">
          <mxGeometry relative="1" as="geometry">
            <mxPoint x="3060" y="2030" as="targetPoint" />
          </mxGeometry>
        </mxCell>
        <mxCell id="H-I3dIYny0l2x0wNeQ6u-247" value="ident" style="ellipse;whiteSpace=wrap;html=1;fontSize=16;" vertex="1" parent="1">
          <mxGeometry x="2645" y="1990" width="120" height="80" as="geometry" />
        </mxCell>
        <mxCell id="H-I3dIYny0l2x0wNeQ6u-248" style="edgeStyle=orthogonalEdgeStyle;rounded=0;orthogonalLoop=1;jettySize=auto;html=1;exitX=0;exitY=0.5;exitDx=0;exitDy=0;endArrow=none;endFill=0;startArrow=classic;startFill=1;" edge="1" parent="1" source="H-I3dIYny0l2x0wNeQ6u-250">
          <mxGeometry relative="1" as="geometry">
            <mxPoint x="2370" y="2010" as="targetPoint" />
          </mxGeometry>
        </mxCell>
        <mxCell id="H-I3dIYny0l2x0wNeQ6u-259" style="edgeStyle=orthogonalEdgeStyle;rounded=0;orthogonalLoop=1;jettySize=auto;html=1;exitX=1;exitY=0.5;exitDx=0;exitDy=0;endArrow=none;endFill=0;" edge="1" parent="1" source="H-I3dIYny0l2x0wNeQ6u-250">
          <mxGeometry relative="1" as="geometry">
            <mxPoint x="3060" y="2149.684210526316" as="targetPoint" />
          </mxGeometry>
        </mxCell>
        <mxCell id="H-I3dIYny0l2x0wNeQ6u-250" value="numero" style="ellipse;whiteSpace=wrap;html=1;fontSize=16;" vertex="1" parent="1">
          <mxGeometry x="2640" y="2110" width="120" height="80" as="geometry" />
        </mxCell>
        <mxCell id="H-I3dIYny0l2x0wNeQ6u-254" style="edgeStyle=orthogonalEdgeStyle;rounded=0;orthogonalLoop=1;jettySize=auto;html=1;exitX=1;exitY=0.5;exitDx=0;exitDy=0;entryX=0;entryY=0.5;entryDx=0;entryDy=0;" edge="1" parent="1" source="H-I3dIYny0l2x0wNeQ6u-251" target="H-I3dIYny0l2x0wNeQ6u-252">
          <mxGeometry relative="1" as="geometry" />
        </mxCell>
        <mxCell id="H-I3dIYny0l2x0wNeQ6u-256" style="edgeStyle=orthogonalEdgeStyle;rounded=0;orthogonalLoop=1;jettySize=auto;html=1;exitX=0;exitY=0.5;exitDx=0;exitDy=0;endArrow=none;endFill=0;" edge="1" parent="1" source="H-I3dIYny0l2x0wNeQ6u-251">
          <mxGeometry relative="1" as="geometry">
            <mxPoint x="2370" y="2120" as="targetPoint" />
          </mxGeometry>
        </mxCell>
        <mxCell id="H-I3dIYny0l2x0wNeQ6u-251" value="(" style="ellipse;whiteSpace=wrap;html=1;fontSize=16;" vertex="1" parent="1">
          <mxGeometry x="2462.5" y="2240" width="120" height="80" as="geometry" />
        </mxCell>
        <mxCell id="H-I3dIYny0l2x0wNeQ6u-255" style="edgeStyle=orthogonalEdgeStyle;rounded=0;orthogonalLoop=1;jettySize=auto;html=1;exitX=1;exitY=0.5;exitDx=0;exitDy=0;" edge="1" parent="1" source="H-I3dIYny0l2x0wNeQ6u-252" target="H-I3dIYny0l2x0wNeQ6u-253">
          <mxGeometry relative="1" as="geometry" />
        </mxCell>
        <mxCell id="H-I3dIYny0l2x0wNeQ6u-252" value="Expressão" style="rounded=0;whiteSpace=wrap;html=1;fontSize=16;" vertex="1" parent="1">
          <mxGeometry x="2642.5" y="2250" width="120" height="60" as="geometry" />
        </mxCell>
        <mxCell id="H-I3dIYny0l2x0wNeQ6u-258" style="edgeStyle=orthogonalEdgeStyle;rounded=0;orthogonalLoop=1;jettySize=auto;html=1;exitX=1;exitY=0.5;exitDx=0;exitDy=0;" edge="1" parent="1" source="H-I3dIYny0l2x0wNeQ6u-253">
          <mxGeometry relative="1" as="geometry">
            <mxPoint x="3060" y="1940" as="targetPoint" />
          </mxGeometry>
        </mxCell>
        <mxCell id="H-I3dIYny0l2x0wNeQ6u-253" value=")" style="ellipse;whiteSpace=wrap;html=1;fontSize=16;" vertex="1" parent="1">
          <mxGeometry x="2817.5" y="2240" width="120" height="80" as="geometry" />
        </mxCell>
        <mxCell id="H-I3dIYny0l2x0wNeQ6u-261" value="Mais Fatores" style="text;html=1;align=center;verticalAlign=middle;whiteSpace=wrap;rounded=0;fontSize=16;fontStyle=1" vertex="1" parent="1">
          <mxGeometry x="2280" y="2410" width="130" height="30" as="geometry" />
        </mxCell>
        <mxCell id="H-I3dIYny0l2x0wNeQ6u-262" style="edgeStyle=orthogonalEdgeStyle;rounded=0;orthogonalLoop=1;jettySize=auto;html=1;entryX=1;entryY=0.5;entryDx=0;entryDy=0;" edge="1" parent="1" source="H-I3dIYny0l2x0wNeQ6u-264" target="H-I3dIYny0l2x0wNeQ6u-267">
          <mxGeometry relative="1" as="geometry" />
        </mxCell>
        <mxCell id="H-I3dIYny0l2x0wNeQ6u-263" style="edgeStyle=orthogonalEdgeStyle;rounded=0;orthogonalLoop=1;jettySize=auto;html=1;endArrow=none;endFill=0;startArrow=classic;startFill=1;" edge="1" parent="1" source="H-I3dIYny0l2x0wNeQ6u-264">
          <mxGeometry relative="1" as="geometry">
            <mxPoint x="2940" y="2490" as="targetPoint" />
          </mxGeometry>
        </mxCell>
        <mxCell id="H-I3dIYny0l2x0wNeQ6u-264" value="*" style="ellipse;whiteSpace=wrap;html=1;fontSize=16;" vertex="1" parent="1">
          <mxGeometry x="2740" y="2540" width="120" height="80" as="geometry" />
        </mxCell>
        <mxCell id="H-I3dIYny0l2x0wNeQ6u-265" value="" style="endArrow=classic;html=1;rounded=0;endFill=1;" edge="1" parent="1">
          <mxGeometry width="50" height="50" relative="1" as="geometry">
            <mxPoint x="2270" y="2490" as="sourcePoint" />
            <mxPoint x="3030" y="2490" as="targetPoint" />
          </mxGeometry>
        </mxCell>
        <mxCell id="H-I3dIYny0l2x0wNeQ6u-266" style="edgeStyle=orthogonalEdgeStyle;rounded=0;orthogonalLoop=1;jettySize=auto;html=1;exitX=0;exitY=0.5;exitDx=0;exitDy=0;" edge="1" parent="1" source="H-I3dIYny0l2x0wNeQ6u-267">
          <mxGeometry relative="1" as="geometry">
            <mxPoint x="2450" y="2490" as="targetPoint" />
          </mxGeometry>
        </mxCell>
        <mxCell id="H-I3dIYny0l2x0wNeQ6u-267" value="Fator" style="rounded=0;whiteSpace=wrap;html=1;fontSize=16;" vertex="1" parent="1">
          <mxGeometry x="2530" y="2550" width="120" height="60" as="geometry" />
        </mxCell>
        <mxCell id="H-I3dIYny0l2x0wNeQ6u-268" style="edgeStyle=orthogonalEdgeStyle;rounded=0;orthogonalLoop=1;jettySize=auto;html=1;entryX=1;entryY=0.5;entryDx=0;entryDy=0;" edge="1" parent="1" source="H-I3dIYny0l2x0wNeQ6u-270" target="H-I3dIYny0l2x0wNeQ6u-272">
          <mxGeometry relative="1" as="geometry" />
        </mxCell>
        <mxCell id="H-I3dIYny0l2x0wNeQ6u-269" style="edgeStyle=orthogonalEdgeStyle;rounded=0;orthogonalLoop=1;jettySize=auto;html=1;exitX=1;exitY=0.5;exitDx=0;exitDy=0;endArrow=none;endFill=0;startArrow=classic;startFill=1;" edge="1" parent="1" source="H-I3dIYny0l2x0wNeQ6u-270">
          <mxGeometry relative="1" as="geometry">
            <mxPoint x="2940" y="2580" as="targetPoint" />
          </mxGeometry>
        </mxCell>
        <mxCell id="H-I3dIYny0l2x0wNeQ6u-270" value="/" style="ellipse;whiteSpace=wrap;html=1;fontSize=16;" vertex="1" parent="1">
          <mxGeometry x="2740" y="2640" width="120" height="80" as="geometry" />
        </mxCell>
        <mxCell id="H-I3dIYny0l2x0wNeQ6u-271" style="edgeStyle=orthogonalEdgeStyle;rounded=0;orthogonalLoop=1;jettySize=auto;html=1;exitX=0;exitY=0.5;exitDx=0;exitDy=0;endArrow=none;endFill=0;" edge="1" parent="1" source="H-I3dIYny0l2x0wNeQ6u-272">
          <mxGeometry relative="1" as="geometry">
            <mxPoint x="2450" y="2570" as="targetPoint" />
          </mxGeometry>
        </mxCell>
        <mxCell id="H-I3dIYny0l2x0wNeQ6u-272" value="Fator" style="rounded=0;whiteSpace=wrap;html=1;fontSize=16;" vertex="1" parent="1">
          <mxGeometry x="2530" y="2650" width="120" height="60" as="geometry" />
        </mxCell>
        <mxCell id="H-I3dIYny0l2x0wNeQ6u-273" value="Condição" style="text;html=1;align=center;verticalAlign=middle;whiteSpace=wrap;rounded=0;fontSize=16;fontStyle=1" vertex="1" parent="1">
          <mxGeometry x="2330" y="960" width="90" height="30" as="geometry" />
        </mxCell>
        <mxCell id="H-I3dIYny0l2x0wNeQ6u-280" style="edgeStyle=orthogonalEdgeStyle;rounded=0;orthogonalLoop=1;jettySize=auto;html=1;exitX=0;exitY=0.5;exitDx=0;exitDy=0;endArrow=none;endFill=0;startArrow=classic;startFill=1;" edge="1" parent="1" source="H-I3dIYny0l2x0wNeQ6u-276">
          <mxGeometry relative="1" as="geometry">
            <mxPoint x="2390" y="1040" as="targetPoint" />
          </mxGeometry>
        </mxCell>
        <mxCell id="H-I3dIYny0l2x0wNeQ6u-281" style="edgeStyle=orthogonalEdgeStyle;rounded=0;orthogonalLoop=1;jettySize=auto;html=1;exitX=1;exitY=0.5;exitDx=0;exitDy=0;" edge="1" parent="1" source="H-I3dIYny0l2x0wNeQ6u-276" target="H-I3dIYny0l2x0wNeQ6u-279">
          <mxGeometry relative="1" as="geometry" />
        </mxCell>
        <mxCell id="H-I3dIYny0l2x0wNeQ6u-276" value="ODD" style="ellipse;whiteSpace=wrap;html=1;fontSize=16;" vertex="1" parent="1">
          <mxGeometry x="2540" y="1080" width="120" height="80" as="geometry" />
        </mxCell>
        <mxCell id="H-I3dIYny0l2x0wNeQ6u-277" value="" style="endArrow=classic;html=1;rounded=0;endFill=1;" edge="1" parent="1">
          <mxGeometry width="50" height="50" relative="1" as="geometry">
            <mxPoint x="2320" y="1040" as="sourcePoint" />
            <mxPoint x="3080" y="1040" as="targetPoint" />
          </mxGeometry>
        </mxCell>
        <mxCell id="H-I3dIYny0l2x0wNeQ6u-289" style="edgeStyle=orthogonalEdgeStyle;rounded=0;orthogonalLoop=1;jettySize=auto;html=1;exitX=1;exitY=0.5;exitDx=0;exitDy=0;endArrow=none;endFill=0;" edge="1" parent="1" source="H-I3dIYny0l2x0wNeQ6u-279">
          <mxGeometry relative="1" as="geometry">
            <mxPoint x="3000" y="1120.111111111111" as="targetPoint" />
          </mxGeometry>
        </mxCell>
        <mxCell id="H-I3dIYny0l2x0wNeQ6u-279" value="Condição" style="rounded=0;whiteSpace=wrap;html=1;fontSize=16;" vertex="1" parent="1">
          <mxGeometry x="2740" y="1090" width="120" height="60" as="geometry" />
        </mxCell>
        <mxCell id="H-I3dIYny0l2x0wNeQ6u-285" style="edgeStyle=orthogonalEdgeStyle;rounded=0;orthogonalLoop=1;jettySize=auto;html=1;exitX=0;exitY=0.5;exitDx=0;exitDy=0;endArrow=none;endFill=0;startArrow=classic;startFill=1;" edge="1" parent="1" source="H-I3dIYny0l2x0wNeQ6u-282">
          <mxGeometry relative="1" as="geometry">
            <mxPoint x="2390" y="1110" as="targetPoint" />
          </mxGeometry>
        </mxCell>
        <mxCell id="H-I3dIYny0l2x0wNeQ6u-286" style="edgeStyle=orthogonalEdgeStyle;rounded=0;orthogonalLoop=1;jettySize=auto;html=1;exitX=1;exitY=0.5;exitDx=0;exitDy=0;entryX=0;entryY=0.5;entryDx=0;entryDy=0;" edge="1" parent="1" source="H-I3dIYny0l2x0wNeQ6u-282" target="H-I3dIYny0l2x0wNeQ6u-283">
          <mxGeometry relative="1" as="geometry" />
        </mxCell>
        <mxCell id="H-I3dIYny0l2x0wNeQ6u-282" value="Expressão" style="rounded=0;whiteSpace=wrap;html=1;fontSize=16;" vertex="1" parent="1">
          <mxGeometry x="2440" y="1200" width="120" height="60" as="geometry" />
        </mxCell>
        <mxCell id="H-I3dIYny0l2x0wNeQ6u-287" style="edgeStyle=orthogonalEdgeStyle;rounded=0;orthogonalLoop=1;jettySize=auto;html=1;exitX=1;exitY=0.5;exitDx=0;exitDy=0;entryX=0;entryY=0.5;entryDx=0;entryDy=0;" edge="1" parent="1" source="H-I3dIYny0l2x0wNeQ6u-283" target="H-I3dIYny0l2x0wNeQ6u-284">
          <mxGeometry relative="1" as="geometry" />
        </mxCell>
        <mxCell id="H-I3dIYny0l2x0wNeQ6u-283" value="Relacional" style="rounded=0;whiteSpace=wrap;html=1;fontSize=16;" vertex="1" parent="1">
          <mxGeometry x="2640" y="1200" width="120" height="60" as="geometry" />
        </mxCell>
        <mxCell id="H-I3dIYny0l2x0wNeQ6u-288" style="edgeStyle=orthogonalEdgeStyle;rounded=0;orthogonalLoop=1;jettySize=auto;html=1;exitX=1;exitY=0.5;exitDx=0;exitDy=0;" edge="1" parent="1" source="H-I3dIYny0l2x0wNeQ6u-284">
          <mxGeometry relative="1" as="geometry">
            <mxPoint x="3000" y="1040" as="targetPoint" />
          </mxGeometry>
        </mxCell>
        <mxCell id="H-I3dIYny0l2x0wNeQ6u-284" value="Expressão" style="rounded=0;whiteSpace=wrap;html=1;fontSize=16;" vertex="1" parent="1">
          <mxGeometry x="2840" y="1200" width="120" height="60" as="geometry" />
        </mxCell>
        <mxCell id="H-I3dIYny0l2x0wNeQ6u-290" value="Relacional" style="text;html=1;align=center;verticalAlign=middle;whiteSpace=wrap;rounded=0;fontSize=16;fontStyle=1" vertex="1" parent="1">
          <mxGeometry x="1395" y="2540" width="140" height="30" as="geometry" />
        </mxCell>
        <mxCell id="H-I3dIYny0l2x0wNeQ6u-291" value="" style="endArrow=classic;html=1;rounded=0;endFill=1;" edge="1" parent="1">
          <mxGeometry width="50" height="50" relative="1" as="geometry">
            <mxPoint x="1400" y="2600" as="sourcePoint" />
            <mxPoint x="2065" y="2600" as="targetPoint" />
          </mxGeometry>
        </mxCell>
        <mxCell id="H-I3dIYny0l2x0wNeQ6u-292" style="edgeStyle=orthogonalEdgeStyle;rounded=0;orthogonalLoop=1;jettySize=auto;html=1;endArrow=none;endFill=0;startArrow=classic;startFill=1;" edge="1" parent="1" source="H-I3dIYny0l2x0wNeQ6u-294">
          <mxGeometry relative="1" as="geometry">
            <mxPoint x="1565" y="2600" as="targetPoint" />
            <mxPoint x="1645" y="2690" as="sourcePoint" />
          </mxGeometry>
        </mxCell>
        <mxCell id="H-I3dIYny0l2x0wNeQ6u-293" style="edgeStyle=orthogonalEdgeStyle;rounded=0;orthogonalLoop=1;jettySize=auto;html=1;exitX=1;exitY=0.5;exitDx=0;exitDy=0;endArrow=none;endFill=0;" edge="1" parent="1" source="H-I3dIYny0l2x0wNeQ6u-294">
          <mxGeometry relative="1" as="geometry">
            <mxPoint x="1925" y="2690" as="targetPoint" />
          </mxGeometry>
        </mxCell>
        <mxCell id="H-I3dIYny0l2x0wNeQ6u-294" value="=" style="ellipse;whiteSpace=wrap;html=1;fontSize=16;" vertex="1" parent="1">
          <mxGeometry x="1700" y="2650" width="120" height="80" as="geometry" />
        </mxCell>
        <mxCell id="H-I3dIYny0l2x0wNeQ6u-295" style="edgeStyle=orthogonalEdgeStyle;rounded=0;orthogonalLoop=1;jettySize=auto;html=1;exitX=0;exitY=0.5;exitDx=0;exitDy=0;endArrow=none;endFill=0;startArrow=classic;startFill=1;" edge="1" parent="1" source="H-I3dIYny0l2x0wNeQ6u-297">
          <mxGeometry relative="1" as="geometry">
            <mxPoint x="1565" y="2670" as="targetPoint" />
          </mxGeometry>
        </mxCell>
        <mxCell id="H-I3dIYny0l2x0wNeQ6u-296" style="edgeStyle=orthogonalEdgeStyle;rounded=0;orthogonalLoop=1;jettySize=auto;html=1;" edge="1" parent="1" source="H-I3dIYny0l2x0wNeQ6u-297">
          <mxGeometry relative="1" as="geometry">
            <mxPoint x="1925" y="2600" as="targetPoint" />
          </mxGeometry>
        </mxCell>
        <mxCell id="H-I3dIYny0l2x0wNeQ6u-297" value="&amp;lt;&amp;gt;" style="ellipse;whiteSpace=wrap;html=1;fontSize=16;" vertex="1" parent="1">
          <mxGeometry x="1700" y="2770" width="120" height="80" as="geometry" />
        </mxCell>
        <mxCell id="H-I3dIYny0l2x0wNeQ6u-311" style="edgeStyle=orthogonalEdgeStyle;rounded=0;orthogonalLoop=1;jettySize=auto;html=1;exitX=1;exitY=0.5;exitDx=0;exitDy=0;endArrow=none;endFill=0;" edge="1" parent="1" source="H-I3dIYny0l2x0wNeQ6u-312">
          <mxGeometry relative="1" as="geometry">
            <mxPoint x="1924.76" y="2940" as="targetPoint" />
          </mxGeometry>
        </mxCell>
        <mxCell id="H-I3dIYny0l2x0wNeQ6u-322" style="edgeStyle=orthogonalEdgeStyle;rounded=0;orthogonalLoop=1;jettySize=auto;html=1;exitX=0;exitY=0.5;exitDx=0;exitDy=0;startArrow=classic;startFill=1;endArrow=none;endFill=0;" edge="1" parent="1" source="H-I3dIYny0l2x0wNeQ6u-312">
          <mxGeometry relative="1" as="geometry">
            <mxPoint x="1565" y="2775" as="targetPoint" />
          </mxGeometry>
        </mxCell>
        <mxCell id="H-I3dIYny0l2x0wNeQ6u-312" value="&amp;lt;" style="ellipse;whiteSpace=wrap;html=1;fontSize=16;" vertex="1" parent="1">
          <mxGeometry x="1700" y="2900" width="120" height="80" as="geometry" />
        </mxCell>
        <mxCell id="H-I3dIYny0l2x0wNeQ6u-313" style="edgeStyle=orthogonalEdgeStyle;rounded=0;orthogonalLoop=1;jettySize=auto;html=1;exitX=0;exitY=0.5;exitDx=0;exitDy=0;endArrow=none;endFill=0;startArrow=classic;startFill=1;" edge="1" parent="1" source="H-I3dIYny0l2x0wNeQ6u-315">
          <mxGeometry relative="1" as="geometry">
            <mxPoint x="1565" y="2920" as="targetPoint" />
          </mxGeometry>
        </mxCell>
        <mxCell id="H-I3dIYny0l2x0wNeQ6u-314" style="edgeStyle=orthogonalEdgeStyle;rounded=0;orthogonalLoop=1;jettySize=auto;html=1;endArrow=none;endFill=0;" edge="1" parent="1" source="H-I3dIYny0l2x0wNeQ6u-315">
          <mxGeometry relative="1" as="geometry">
            <mxPoint x="1925" y="2800" as="targetPoint" />
          </mxGeometry>
        </mxCell>
        <mxCell id="H-I3dIYny0l2x0wNeQ6u-315" value="&amp;lt;=" style="ellipse;whiteSpace=wrap;html=1;fontSize=16;" vertex="1" parent="1">
          <mxGeometry x="1700" y="3020" width="120" height="80" as="geometry" />
        </mxCell>
        <mxCell id="H-I3dIYny0l2x0wNeQ6u-316" style="edgeStyle=orthogonalEdgeStyle;rounded=0;orthogonalLoop=1;jettySize=auto;html=1;endArrow=none;endFill=0;startArrow=classic;startFill=1;" edge="1" parent="1" source="H-I3dIYny0l2x0wNeQ6u-318">
          <mxGeometry relative="1" as="geometry">
            <mxPoint x="1565" y="3050" as="targetPoint" />
            <mxPoint x="1644.73" y="3190" as="sourcePoint" />
          </mxGeometry>
        </mxCell>
        <mxCell id="H-I3dIYny0l2x0wNeQ6u-317" style="edgeStyle=orthogonalEdgeStyle;rounded=0;orthogonalLoop=1;jettySize=auto;html=1;exitX=1;exitY=0.5;exitDx=0;exitDy=0;endArrow=none;endFill=0;" edge="1" parent="1" source="H-I3dIYny0l2x0wNeQ6u-318">
          <mxGeometry relative="1" as="geometry">
            <mxPoint x="1924.73" y="3190" as="targetPoint" />
          </mxGeometry>
        </mxCell>
        <mxCell id="H-I3dIYny0l2x0wNeQ6u-318" value="&amp;gt;" style="ellipse;whiteSpace=wrap;html=1;fontSize=16;" vertex="1" parent="1">
          <mxGeometry x="1699.97" y="3150" width="120" height="80" as="geometry" />
        </mxCell>
        <mxCell id="H-I3dIYny0l2x0wNeQ6u-319" style="edgeStyle=orthogonalEdgeStyle;rounded=0;orthogonalLoop=1;jettySize=auto;html=1;exitX=0;exitY=0.5;exitDx=0;exitDy=0;endArrow=none;endFill=0;startArrow=classic;startFill=1;" edge="1" parent="1" source="H-I3dIYny0l2x0wNeQ6u-321">
          <mxGeometry relative="1" as="geometry">
            <mxPoint x="1564.73" y="3170" as="targetPoint" />
          </mxGeometry>
        </mxCell>
        <mxCell id="H-I3dIYny0l2x0wNeQ6u-320" style="edgeStyle=orthogonalEdgeStyle;rounded=0;orthogonalLoop=1;jettySize=auto;html=1;endArrow=none;endFill=0;" edge="1" parent="1" source="H-I3dIYny0l2x0wNeQ6u-321">
          <mxGeometry relative="1" as="geometry">
            <mxPoint x="1925" y="3050" as="targetPoint" />
          </mxGeometry>
        </mxCell>
        <mxCell id="H-I3dIYny0l2x0wNeQ6u-321" value="&amp;gt;=" style="ellipse;whiteSpace=wrap;html=1;fontSize=16;" vertex="1" parent="1">
          <mxGeometry x="1699.97" y="3270" width="120" height="80" as="geometry" />
        </mxCell>
      </root>
    </mxGraphModel>
  </diagram>
</mxfile>
